<svg viewBox="0 0 24 24" xmlns="http://www.w3.org/2000/svg"><path fill-rule="evenodd" clip-rule="evenodd" d="M10.14 2.92c.35.21.47.67.25 1.03L7.7 8.44h8.6l-2.7-4.5a.75.75 0 1 1 1.3-.76l3.15 5.26h2.39a.75.75 0 0 1 0 1.5H3.56a.75.75 0 1 1 0-1.5h2.39l3.16-5.26a.75.75 0 0 1 1.03-.26Zm-4.89 7.77c.41 0 .75.33.75.75v6.75a.94.94 0 0 0 .94.93h10.12a.94.94 0 0 0 .94-.93v-6.75a.75.75 0 0 1 1.5 0v6.75a2.44 2.44 0 0 1-2.44 2.43H6.94A2.44 2.44 0 0 1 4.5 18.2v-6.75c0-.42.34-.75.75-.75Zm3.94 1.69c.41 0 .75.33.75.74v3.94a.75.75 0 0 1-1.5 0v-3.93c0-.42.33-.76.75-.76Zm2.81 0c.41 0 .75.33.75.74v3.94a.75.75 0 0 1-1.5 0v-3.93c0-.42.34-.76.75-.76Zm2.81 0c.42 0 .75.33.75.74v3.94a.75.75 0 0 1-1.5 0v-3.93c0-.42.34-.76.75-.76Z"/></svg>
