<svg viewBox="0 0 24 24" xmlns="http://www.w3.org/2000/svg"><path fill-rule="evenodd" clip-rule="evenodd" d="M11.4286 4.25C7.464 4.25 4.25 7.464 4.25 11.4286c0 3.9646 3.214 7.1785 7.1786 7.1785 1.7121 0 3.2843-.5994 4.518-1.5998l3.5231 3.523a.75.75 0 0 0 1.0606 0 .75.75 0 0 0 0-1.0606l-3.523-3.5231c1.0004-1.2337 1.5998-2.8059 1.5998-4.518 0-3.9646-3.2139-7.1786-7.1785-7.1786ZM5.75 11.4286c0-3.1362 2.5424-5.6786 5.6786-5.6786s5.6785 2.5424 5.6785 5.6786-2.5423 5.6785-5.6785 5.6785c-3.1362 0-5.6786-2.5423-5.6786-5.6785Z"/></svg>
