<svg xmlns="http://www.w3.org/2000/svg" viewBox="0 0 88 16">
    <path d="M8.113.217c0-.13.086-.217.216-.217h2.465c.13 0 .216.087.216.217v15.566c0 .13-.086.217-.216.217H8.33c-.13 0-.216-.087-.216-.217v-6.7c0-.086-.043-.13-.13-.13H3.506c-.087 0-.13.044-.13.13v6.7c0 .13-.086.217-.216.217H.716c-.13 0-.216-.087-.216-.217V.217C.5.087.586 0 .716 0H3.16c.13 0 .216.087.216.217v6.31c0 .086.043.13.13.13h4.477c.087 0 .13-.044.13-.13V.216ZM40.19 16c-4.254 0-5.606-2.34-5.606-6.034 0-3.913 1.657-6.116 5.213-6.116 3.49 0 4.538 1.919 4.538 5.089 0 1.486-.066 1.858-.59 1.858h-6.277c-.11 0-.131.044-.131.131 0 2.34 1.238 2.93 3.267 2.93 1.113 0 2.576-.255 3.252-.474.112-.03.213-.018.22.134v1.787a.232.232 0 0 1-.156.219c-.85.393-2.203.476-3.73.476Zm-2.766-7.037h4.257c.104 0 .145-.018.145-.129 0-1.235-.143-2.978-2.135-2.978-1.867 0-2.397 1.249-2.397 2.954 0 .087.043.153.13.153ZM18.894 16c-4.254 0-5.606-2.34-5.606-6.034 0-3.913 1.658-6.116 5.213-6.116 3.49 0 4.538 1.919 4.538 5.089 0 1.486-.066 1.858-.59 1.858h-6.277c-.11 0-.131.044-.131.131 0 2.34 1.239 2.93 3.267 2.93 1.113 0 2.576-.255 3.252-.474.112-.03.213-.018.22.134v1.787a.232.232 0 0 1-.156.219c-.85.393-2.203.476-3.73.476Zm-2.765-7.037h4.256c.104 0 .145-.018.145-.129 0-1.235-.143-2.978-2.135-2.978-1.867 0-2.397 1.249-2.397 2.954 0 .087.043.153.13.153ZM46.813.217c0-.13.087-.217.217-.217h2.379c.13 0 .216.087.216.217v3.548c0 .13.065.184.238.173.415-.026 1.364-.111 2.342-.05 2.369.18 4.02.607 4.103 3.805v8.001c0 .13-.087.217-.217.217h-2.4c-.13 0-.217-.087-.217-.217v-7.42c0-1.648-.367-2.125-2.032-2.125-.65 0-1.233.044-1.601.13-.151.044-.216.087-.216.217v9.198c0 .13-.087.216-.216.216h-2.38c-.13 0-.216-.087-.216-.216V.217ZM61.579 4.03c.13 0 .215.087.215.217v7.354c0 1.646.433 2.145 2.185 2.145.54 0 1.06-.043 1.47-.13.13-.044.195-.087.195-.217V4.247c0-.13.087-.216.216-.216h2.38c.13 0 .216.086.216.216v11.081c0 .13-.087.195-.217.217-1.167.217-2.963.455-4.304.455-3.806 0-4.974-1.04-4.974-4.205V4.247c0-.13.087-.216.217-.216h2.4ZM31.11 9.924a11.973 11.973 0 0 0-1.068-.754c-1.726-1.073-2.112-1.314-2.097-2.08.015-.813.602-1 1.835-1.029.633-.015 1.573.11 2.228.22.087.021.153-.045.153-.088V4.244c0-.109-.058-.136-.123-.158-.677-.13-1.734-.235-2.782-.235-2.84 0-4.151.831-4.151 3.305 0 1.248.443 1.878 1.663 2.765.296.238.654.49 1.074.757 1.726 1.073 2.111 1.314 2.097 2.08-.015.813-.602 1-1.835 1.03-.633.014-1.825-.11-2.48-.22-.087-.022-.153.044-.153.087v1.949c0 .11.057.136.123.158.677.131 1.985.236 3.034.236 2.84 0 4.15-.832 4.15-3.306 0-1.247-.447-1.881-1.667-2.768ZM76.824 9.924a11.973 11.973 0 0 0-1.069-.754c-1.725-1.073-2.111-1.314-2.097-2.08.015-.813.603-1 1.835-1.029.634-.015 1.573.11 2.228.22.087.021.153-.045.153-.088V4.244c0-.109-.057-.136-.123-.158-.677-.13-1.733-.235-2.782-.235-2.84 0-4.15.831-4.15 3.305 0 1.248.442 1.878 1.663 2.765.296.238.653.49 1.073.757 1.726 1.073 2.112 1.314 2.097 2.08-.015.813-.602 1-1.835 1.03-.633.014-1.824-.11-2.48-.22-.087-.022-.153.044-.153.087v1.949c0 .11.058.136.123.158.677.131 1.986.236 3.035.236 2.84 0 4.15-.832 4.15-3.306 0-1.247-.448-1.881-1.668-2.768ZM85.423 10.049h-4.53a.316.316 0 0 1-.315-.316V.81a.314.314 0 0 1 .45-.285l6.76 3.228c.149.071.217.246.157.4l-2.229 5.695a.315.315 0 0 1-.293.2Zm-4.215-.632h4l2.043-5.22-6.043-2.886v8.106Z"/>
    <path d="m82.109 2.776.847.393v2.35l1.664.518.671-1.756.778.363-1.508 3.933h-.916l.668-1.736-1.358-.42v2.156h-.846V2.776Z"/>
</svg>